<?xml version="1.0" encoding="utf-8"?>
<!-- Uploaded to: SVG Repo, www.svgrepo.com, Generator: SVG Repo Mixer Tools -->
<svg width="800px" height="800px" viewBox="0 0 1024 1024" class="icon"  version="1.1" xmlns="http://www.w3.org/2000/svg"><path d="M367.444795 941.62776c0 27.457413 22.611987 50.069401 50.069401 50.069401H601.640379c27.457413 0 50.069401-22.611987 50.0694-50.069401v-64.605678H367.444795v64.605678z" fill="#E8E8E8" /><path d="M719.545741 100.138801C653.324921 37.148265 551.570978 32.302839 522.498423 32.302839h-22.611988c-29.072555 0-132.44164 4.845426-198.66246 67.835962-40.378549 37.148265-59.760252 90.44795-59.760253 155.053628 0 116.290221 35.533123 177.665615 69.451104 237.425868 29.072555 50.069401 56.529968 98.523659 56.529969 172.820189v103.369085H653.324921v-103.369085c0-74.29653 27.457413-122.750789 56.529969-172.820189 33.917981-59.760252 69.451104-121.135647 69.451104-237.425868 0-64.605678-19.381703-117.905363-59.760253-155.053628z" fill="#FAD97F" /><path d="M742.157729 75.911672C667.861199 6.460568 559.646688 0 522.498423 0h-24.22713C461.123028 0 351.293375 6.460568 278.611987 75.911672c-46.839117 43.608833-69.451104 103.369085-69.451104 179.280757 0 125.981073 40.378549 193.817035 74.29653 253.577287 29.072555 48.454259 53.299685 90.44795 53.299685 156.66877v135.671924h350.485804v-135.671924c0-66.22082 24.227129-108.214511 53.299685-156.66877 35.533123-59.760252 74.29653-127.596215 74.29653-253.577287-3.230284-75.911672-25.842271-135.671924-72.681388-179.280757z m-32.302839 416.706625c-29.072555 50.069401-56.529968 98.523659-56.529969 172.820189v103.369085H367.444795v-103.369085c0-74.29653-27.457413-121.135647-56.529969-172.820189-33.917981-59.760252-69.451104-121.135647-69.451104-237.425868 0-66.22082 19.381703-117.905363 59.760253-155.053628C367.444795 37.148265 469.198738 32.302839 499.886435 32.302839h22.611988c29.072555 0 130.826498 4.845426 197.047318 67.835962 40.378549 37.148265 59.760252 90.44795 59.760253 155.053628 0 116.290221-35.533123 177.665615-69.451104 237.425868zM335.141956 844.719243v96.908517c0 45.223975 37.148265 82.37224 82.37224 82.37224H601.640379c45.223975 0 82.37224-37.148265 82.372239-82.37224v-96.908517H335.141956z m316.567823 32.302839v38.763407H367.444795v-38.763407h284.264984zM601.640379 991.697161h-184.126183c-25.842271 0-46.839117-19.381703-50.069401-43.608833h284.264984c-3.230284 24.227129-24.227129 43.608833-50.0694 43.608833z" fill="" /><path d="M640.403785 282.649842L617.791798 260.037855l-106.599369 106.599369-109.829653-108.214511-22.611987 22.611987 114.675079 114.675079v146.977918h32.302839v-143.747634z" fill="" /></svg>